<?xml version="1.0" encoding="UTF-8"?>
<svg id="Layer_2" data-name="Layer 2" xmlns="http://www.w3.org/2000/svg" viewBox="0 0 137.63 137.63">
  <defs>
    <style>
      .cls-1 {
        fill: none;
      }

      .cls-1, .cls-2 {
        stroke-width: 0px;
      }

      .cls-2 {
        fill: #fff;
      }
    </style>
  </defs>
  <g id="Layer_2-2" data-name="Layer 2">
    <g id="Layer_1-2" data-name="Layer 1-2">
      <rect class="cls-1" width="137.63" height="137.63"/>
    </g>
    <path class="cls-2" d="m124.44,97.33v-19.78h5.27v-5.39h-5.27v-9.94h5.27v-5.39h-5.27v-9.94h5.27v-5.39h-5.27v-5.96l-2.35-2.2-2.35,2.2v5.96h-48.4v-5.96l-2.35-2.2-2.35,2.2v5.96H18.26v-5.97l-2.34-2.2-2.34,2.2v5.97h-5.29v5.39h5.29v9.94h-5.29v5.39h5.29v9.94h-5.29v5.39h5.29v19.78c-7.53,2.08-10.43,3.94-10.43,3.94v4.4h63.52s2.35,0,2.35,0h65.87v-4.4s-2.9-1.85-10.43-3.93Zm-4.69-25.17h-48.4v-9.94h48.4v9.94Zm0-25.27v9.94h-48.4v-9.94h48.4Zm-101.49,0h48.4v9.94H18.26v-9.94Zm0,15.33h48.4v9.94H18.26v-9.94Zm0,33.94v-18.6h48.4v14.07c-23.09.13-38.52,2.29-48.4,4.54Zm53.09-4.53v-14.07h48.4v18.6c-9.87-2.24-25.32-4.39-48.4-4.53Z"/>
  </g>
</svg>