<?xml version="1.0" encoding="UTF-8"?>
<svg id="Layer_2" data-name="Layer 2" xmlns="http://www.w3.org/2000/svg" viewBox="0 0 137.63 137.63">
  <defs>
    <style>
      .cls-1 {
        fill: none;
      }

      .cls-2 {
        fill: #007533;
      }
    </style>
  </defs>
  <g id="Layer_1-2" data-name="Layer 1">
    <g>
      <rect class="cls-1" width="137.63" height="137.63"/>
      <g>
        <path class="cls-2" d="m90.23,32.86c6.67-.74,11.71,3.29,13.57,8.1.86,2.23,1.09,4.53,1.09,6.88,0,13.26,0,26.52,0,39.79,0,4.28.03,8.56,0,12.84-.01,1.94,0,3.89-.23,5.82-.79,6.93-6.17,11.64-13.17,11.63-11.42-.02-22.84-.05-34.27-.06-3.76,0-7.52.05-11.28.06-4.18,0-7.63-1.61-10.28-4.84-1.91-2.33-2.82-5.03-2.84-8.04-.04-6.26-.11-12.53-.12-18.79-.02-12.99-.02-25.98,0-38.97,0-2.95.44-5.85,2.11-8.38,2.45-3.71,5.81-5.91,10.36-6.06.7-.02,1.41.02,2.11.04.03.7.08,1.4.09,2.11.02,1.04,0,2.09,0,3.13,0,.84,0,.81-.87.87-1,.06-2.01.08-2.98.31-2.72.65-4.86,3.61-4.85,6.16.01,4.22-.11,8.44-.12,12.65-.02,15.14,0,30.28-.02,45.42,0,2.45.56,4.62,2.34,6.38,1.1,1.09,2.41,1.71,3.95,1.79.94.05,1.88.04,2.82.04,14.64,0,29.28-.01,43.92.02,2.97,0,5.14-1.18,6.55-3.78.63-1.17.84-2.44.86-3.75.04-2.97.04-5.93.04-8.9,0-14.7,0-29.4-.03-44.11,0-2.11,0-4.23-.23-6.32-.36-3.36-3.04-5.74-6.41-5.9-.56-.03-1.13,0-1.69-.05-.16-.02-.44-.22-.44-.35-.03-1.91-.02-3.83-.02-5.73Z"/>
        <path class="cls-2" d="m58.96,29.6c.24-1.19.32-2.38.72-3.45,1.46-3.93,4.4-6.1,8.53-6.4,3.77-.27,6.78,1.32,8.84,4.53.9,1.41,1.35,3,1.42,4.68.02.5.15.69.69.67.92-.03,1.84-.04,2.75.08,2.34.31,3.96,2.22,3.96,4.58,0,1.34-.06,2.68.01,4.01.14,2.73-1.99,5.02-4.96,4.99-7.81-.07-15.62-.02-23.43-.03-.77,0-1.56,0-2.3-.17-2.02-.48-3.41-2.33-3.41-4.41,0-1.44,0-2.88,0-4.32,0-2.71,1.96-4.71,4.67-4.75.85-.01,1.71,0,2.51,0Zm15,0c0-.25,0-.41,0-.57-.16-2.65-2.41-4.74-5.11-4.75-2.75,0-5,2.08-5.16,4.77-.02.4.06.59.5.55.31-.03.62,0,.94,0,2.92,0,5.83,0,8.84,0Z"/>
        <path class="cls-2" d="m71.82,78.33c-.56,0-1.02,0-1.48,0-7.87,0-15.73-.01-23.6,0-.57,0-.77-.13-.74-.72.05-1.15.03-2.29,0-3.44,0-.42.12-.59.57-.59,8.22.01,16.44,0,24.66,0,.27,0,.58-.05.58.37,0,1.43,0,2.87,0,4.37Z"/>
        <path class="cls-2" d="m46.03,92.39h25.78c0,1.47.01,2.93-.02,4.38,0,.12-.3.31-.47.32-.69.03-1.38,0-2.07,0-7.39,0-14.78,0-22.17,0-1.07,0-1.07,0-1.06-1.1,0-1.18,0-2.37,0-3.61Z"/>
        <path class="cls-2" d="m71.8,55.23v4.58c-.31.02-.59.05-.88.05-7.68,0-15.36,0-23.04,0-.48,0-.96.01-1.44-.05-.16-.02-.41-.25-.41-.38-.03-1.37-.02-2.75-.02-4.19h25.78Z"/>
        <path class="cls-2" d="m84.1,54.92c.37-.44.67-.84,1.02-1.19.77-.79,1.53-1.6,2.37-2.32,1.38-1.19,3.09-.56,3.43,1.23.14.72-.25,1.25-.69,1.73-.78.84-1.6,1.65-2.4,2.47-.14.15-.29.3-.48.5.16.17.3.34.45.5.92.96,1.91,1.88,2.76,2.9,1.07,1.3.36,3.01-1.3,3.33-.61.12-1.12-.1-1.55-.49-.86-.79-1.7-1.6-2.56-2.4-.26-.24-.52-.48-.81-.75-.67.67-1.32,1.31-1.96,1.95-.44.44-.86.91-1.33,1.32-.87.77-1.95.78-2.71.06-.89-.84-1.04-1.84-.25-2.78.85-1,1.82-1.89,2.74-2.83.13-.13.27-.26.46-.43-.17-.19-.32-.35-.48-.51-.89-.88-1.81-1.74-2.67-2.64-.77-.8-.91-1.63-.5-2.45.67-1.35,2.11-1.67,3.22-.65.87.81,1.63,1.73,2.44,2.59.21.23.42.46.8.86Z"/>
        <path class="cls-2" d="m81.14,94.87c-.89-.9-1.77-1.78-2.64-2.68-.25-.25-.5-.51-.69-.81-.65-.97-.51-1.95.36-2.74.79-.72,1.81-.77,2.65.02,1.02.96,1.94,2.01,2.9,3.03.08.09.16.18.29.32.18-.17.35-.31.51-.46,1-.98,1.95-2,3-2.92,1.39-1.22,3.08-.57,3.41,1.24.13.7-.24,1.21-.67,1.67-.8.85-1.59,1.71-2.46,2.5-.51.46-.41.72.02,1.13.9.87,1.8,1.75,2.63,2.68,1.19,1.32.62,3.05-1.1,3.47-.72.17-1.26-.16-1.75-.61-1.08-1.01-2.15-2.04-3.27-3.11-.16.15-.33.29-.48.45-.93.93-1.83,1.89-2.8,2.78-.94.88-1.94.87-2.8.07-.84-.79-.92-1.92-.12-2.85.66-.77,1.41-1.48,2.12-2.21.29-.3.57-.61.88-.95Z"/>
        <path class="cls-2" d="m81.12,82.52c-.61-.34-1.27-.51-1.61-.93-1.48-1.83-2.84-3.76-3.44-6.09-.09-.35,0-.85.19-1.14.29-.42.82-.3,1.19-.05,1.05.7,2.1,1.42,3.1,2.2.46.36.73.38,1.21,0,2.51-1.96,5.05-3.89,7.62-5.79.59-.44,1.29-.77,1.98-1.05.28-.11.79-.05.99.14.16.15.14.7-.01.95-.44.73-.93,1.44-1.5,2.07-2.63,2.88-5.27,5.75-7.95,8.57-.45.47-1.13.72-1.77,1.11Z"/>
      </g>
    </g>
  </g>
</svg>